<svg width="586" height="137" viewBox="0 0 586 137" fill="none" xmlns="http://www.w3.org/2000/svg">
<g filter="url(#filter0_d)">
<path d="M4 127.178V123.534L18.5757 118.068V16.0339L4 10.5678V6.92373H46.816C61.1487 6.92373 72.627 9.53531 81.251 14.7585C89.9963 19.9816 94.369 28.2415 94.369 39.5381C94.369 46.2189 92.1827 52.1709 87.81 57.3941C83.4373 62.4958 77.3641 66.565 69.5904 69.6017C61.9382 72.6384 53.1928 74.1568 43.3543 74.1568H32.7869V118.068L49.1845 123.534V127.178H4ZM32.7869 15.4873V65.5932H47.5448C57.1404 65.5932 64.7926 63.346 70.5014 58.8517C76.2102 54.2359 79.0646 48.2839 79.0646 40.9958C79.0646 32.0071 76.1495 25.5085 70.3192 21.5C64.6104 17.4915 56.5938 15.4873 46.2694 15.4873H32.7869Z" fill="#E5E5E5" fill-opacity="0.25"/>
<path d="M130.677 18.5847C128.005 18.5847 125.758 17.7345 123.936 16.0339C122.235 14.2119 121.385 11.9647 121.385 9.29237C121.385 6.49859 122.235 4.25141 123.936 2.55085C125.758 0.850282 128.005 0 130.677 0C133.471 0 135.718 0.850282 137.418 2.55085C139.119 4.25141 139.969 6.49859 139.969 9.29237C139.969 11.9647 139.119 14.2119 137.418 16.0339C135.718 17.7345 133.471 18.5847 130.677 18.5847ZM114.462 127.178V124.263L125.94 119.708V59.2161L114.097 52.1102V50.2881L136.872 43.3644H138.329V119.708L150.354 124.263V127.178H114.462Z" fill="#E5E5E5" fill-opacity="0.25"/>
<path d="M169.415 127.178V124.263L180.893 119.708V59.2161L169.051 53.0212V51.0169L190.368 43.3644H191.825L193.101 56.6652H193.829C198.445 52.1709 202.818 48.8305 206.947 46.6441C211.199 44.4576 215.875 43.3644 220.976 43.3644C228.264 43.3644 234.277 45.3079 239.014 49.1949C243.751 53.0819 246.119 58.7302 246.119 66.1398V119.708L257.598 124.263V127.178H220.794V124.263L233.73 119.708V73.2458C233.73 67.0508 231.908 62.3743 228.264 59.2161C224.62 55.9364 219.944 54.2966 214.235 54.2966C210.834 54.2966 207.069 55.0254 202.939 56.4831C198.931 57.8192 195.712 59.7627 193.283 62.3136V119.708L206.219 124.263V127.178H169.415Z" fill="#E5E5E5" fill-opacity="0.25"/>
<path d="M301.729 129C296.506 129 292.073 127.421 288.429 124.263C284.906 121.105 283.145 116.671 283.145 110.962V52.839H267.841V51.3814L284.056 45.1864L294.077 25.1441H295.534V45.1864H319.584V52.839H295.534V108.958C295.534 112.359 296.81 114.91 299.36 116.61C301.911 118.189 305.13 118.979 309.017 118.979C311.446 118.979 313.693 118.797 315.758 118.432C317.823 117.946 319.706 117.4 321.406 116.792L321.771 116.975V118.25C320.556 120.679 318.248 123.109 314.847 125.538C311.568 127.846 307.195 129 301.729 129Z" fill="#E5E5E5" fill-opacity="0.25"/>
<path d="M369.096 129C361.929 129 355.978 127.056 351.241 123.169C346.625 119.282 344.317 113.634 344.317 106.225V52.6568L332.292 48.1017V45.1864H356.707V99.1186C356.707 105.314 358.468 110.051 361.99 113.33C365.513 116.489 370.128 118.068 375.837 118.068C379.238 118.068 382.882 117.4 386.769 116.064C390.777 114.727 393.996 112.723 396.425 110.051V52.6568L382.761 48.1017V45.1864H408.814V119.89L421.75 124.263V127.178H396.425V115.881H395.696C391.081 120.497 386.708 123.838 382.578 125.903C378.449 127.968 373.954 129 369.096 129Z" fill="#E5E5E5" fill-opacity="0.25"/>
<path d="M437.21 127.178V124.263L448.688 119.708V59.2161L436.846 53.0212V51.0169L458.162 43.3644H459.62L460.895 59.2161H461.442C465.086 54.4788 468.122 51.0169 470.552 48.8305C473.103 46.5226 475.41 45.065 477.475 44.4576C479.54 43.7288 481.605 43.3644 483.67 43.3644C484.642 43.3644 485.735 43.5466 486.949 43.911C488.164 44.154 489.136 44.4576 489.865 44.822C491.201 45.3079 492.294 45.9153 493.144 46.6441C493.994 47.3729 494.419 48.1624 494.419 49.0127C494.419 49.3771 494.359 49.8023 494.237 50.2881C494.237 50.774 494.116 51.2599 493.873 51.7458L490.958 59.0339H490.047L484.581 56.6652C482.394 55.815 479.965 55.3898 477.293 55.3898C474.256 55.3898 471.402 56.1794 468.73 57.7585C466.058 59.3376 463.507 61.9491 461.078 65.5932V119.708L474.378 124.263V127.178H437.21Z" fill="#E5E5E5" fill-opacity="0.25"/>
<path d="M526.066 129C520.357 129 515.62 127.36 511.855 124.081C508.089 120.679 506.207 116.003 506.207 110.051C506.207 104.099 508.393 99.0579 512.766 94.928C517.138 90.798 524.365 87.5184 534.447 85.089L552.12 80.7161V66.6864C552.12 62.0706 550.298 58.2444 546.654 55.2076C543.132 52.1709 539.184 50.6525 534.811 50.6525C529.953 50.6525 526.552 51.8065 524.608 54.1144C522.665 56.4223 521.693 59.5805 521.693 63.589V69.6017L520.782 70.5127H513.13C511.308 70.5127 510.033 70.2698 509.304 69.7839C508.697 69.1766 508.393 67.8404 508.393 65.7754C508.393 63.2246 509.182 60.613 510.762 57.9407C512.341 55.2684 514.709 52.9604 517.867 51.0169C521.268 48.8305 524.73 47.0085 528.252 45.5508C531.896 44.0932 535.54 43.3644 539.184 43.3644C543.8 43.3644 547.99 44.0325 551.756 45.3686C555.521 46.5833 558.557 48.6483 560.865 51.5636C563.173 54.4788 564.327 58.3658 564.327 63.2246V116.975C565.299 117.946 566.513 118.675 567.971 119.161C569.429 119.647 571.311 119.89 573.619 119.89H581.636L582 120.254V120.619C580.785 122.684 578.903 124.627 576.352 126.449C573.923 128.15 570.825 129 567.06 129C563.173 129 560.076 127.968 557.768 125.903C555.46 123.838 553.881 121.226 553.031 118.068H552.12C548.962 121.226 545.075 123.838 540.459 125.903C535.965 127.968 531.167 129 526.066 129ZM518.414 106.589C518.414 110.84 519.689 114.059 522.24 116.246C524.791 118.311 528.374 119.343 532.989 119.343C536.026 119.343 539.123 118.979 542.281 118.25C545.439 117.521 548.719 116.306 552.12 114.606V86C542.281 87.9435 534.933 89.9477 530.074 92.0127C525.337 94.0777 522.179 96.3249 520.6 98.7542C519.143 101.062 518.414 103.674 518.414 106.589Z" fill="#E5E5E5" fill-opacity="0.25"/>
</g>
<defs>
<filter id="filter0_d" x="0" y="0" width="586" height="137" filterUnits="userSpaceOnUse" color-interpolation-filters="sRGB">
<feFlood flood-opacity="0" result="BackgroundImageFix"/>
<feColorMatrix in="SourceAlpha" type="matrix" values="0 0 0 0 0 0 0 0 0 0 0 0 0 0 0 0 0 0 127 0"/>
<feOffset dy="4"/>
<feGaussianBlur stdDeviation="2"/>
<feColorMatrix type="matrix" values="0 0 0 0 0.0235294 0 0 0 0 0.0156863 0 0 0 0 0.00784314 0 0 0 0.25 0"/>
<feBlend mode="normal" in2="BackgroundImageFix" result="effect1_dropShadow"/>
<feBlend mode="normal" in="SourceGraphic" in2="effect1_dropShadow" result="shape"/>
</filter>
</defs>
</svg>
